<mxfile host="app.diagrams.net" modified="2020-12-16T13:24:23.549Z" agent="5.0 (X11; CrOS x86_64 13505.63.0) AppleWebKit/537.36 (KHTML, like Gecko) Chrome/87.0.4280.88 Safari/537.36" etag="c-qHAfX2HsB5-y1h5a9R" version="14.0.4" type="github">
  <diagram id="C5RBs43oDa-KdzZeNtuy" name="Page-1">
    <mxGraphModel dx="868" dy="522" grid="1" gridSize="10" guides="1" tooltips="1" connect="1" arrows="1" fold="1" page="1" pageScale="1" pageWidth="827" pageHeight="1169" math="0" shadow="0">
      <root>
        <mxCell id="WIyWlLk6GJQsqaUBKTNV-0" />
        <mxCell id="WIyWlLk6GJQsqaUBKTNV-1" parent="WIyWlLk6GJQsqaUBKTNV-0" />
        <mxCell id="MLVvXIczcRtA_Kc2Rful-2" value="" style="edgeStyle=orthogonalEdgeStyle;rounded=0;orthogonalLoop=1;jettySize=auto;html=1;" edge="1" parent="WIyWlLk6GJQsqaUBKTNV-1" source="MLVvXIczcRtA_Kc2Rful-1">
          <mxGeometry relative="1" as="geometry">
            <mxPoint x="410" y="170" as="targetPoint" />
          </mxGeometry>
        </mxCell>
        <mxCell id="MLVvXIczcRtA_Kc2Rful-0" value="Start" style="rounded=1;whiteSpace=wrap;html=1;" vertex="1" parent="WIyWlLk6GJQsqaUBKTNV-1">
          <mxGeometry x="360" y="40" width="100" height="40" as="geometry" />
        </mxCell>
        <mxCell id="MLVvXIczcRtA_Kc2Rful-6" value="" style="edgeStyle=orthogonalEdgeStyle;rounded=0;orthogonalLoop=1;jettySize=auto;html=1;" edge="1" parent="WIyWlLk6GJQsqaUBKTNV-1" source="MLVvXIczcRtA_Kc2Rful-1" target="MLVvXIczcRtA_Kc2Rful-5">
          <mxGeometry relative="1" as="geometry" />
        </mxCell>
        <mxCell id="MLVvXIczcRtA_Kc2Rful-1" value="Utmatning&lt;br&gt;&quot;Gissa tal&quot;" style="shape=parallelogram;perimeter=parallelogramPerimeter;whiteSpace=wrap;html=1;fixedSize=1;rounded=1;" vertex="1" parent="WIyWlLk6GJQsqaUBKTNV-1">
          <mxGeometry x="350" y="120" width="120" height="60" as="geometry" />
        </mxCell>
        <mxCell id="MLVvXIczcRtA_Kc2Rful-4" value="" style="edgeStyle=orthogonalEdgeStyle;rounded=0;orthogonalLoop=1;jettySize=auto;html=1;" edge="1" parent="WIyWlLk6GJQsqaUBKTNV-1" source="MLVvXIczcRtA_Kc2Rful-0" target="MLVvXIczcRtA_Kc2Rful-1">
          <mxGeometry relative="1" as="geometry">
            <mxPoint x="410" y="80" as="sourcePoint" />
            <mxPoint x="410" y="170" as="targetPoint" />
          </mxGeometry>
        </mxCell>
        <mxCell id="MLVvXIczcRtA_Kc2Rful-8" value="" style="edgeStyle=orthogonalEdgeStyle;rounded=0;orthogonalLoop=1;jettySize=auto;html=1;" edge="1" parent="WIyWlLk6GJQsqaUBKTNV-1" source="MLVvXIczcRtA_Kc2Rful-5" target="MLVvXIczcRtA_Kc2Rful-7">
          <mxGeometry relative="1" as="geometry" />
        </mxCell>
        <mxCell id="MLVvXIczcRtA_Kc2Rful-5" value="Inmatning&lt;br&gt;heltal" style="shape=parallelogram;perimeter=parallelogramPerimeter;whiteSpace=wrap;html=1;fixedSize=1;rounded=1;" vertex="1" parent="WIyWlLk6GJQsqaUBKTNV-1">
          <mxGeometry x="350" y="210" width="120" height="60" as="geometry" />
        </mxCell>
        <mxCell id="MLVvXIczcRtA_Kc2Rful-7" value="Är talet&amp;nbsp;&lt;br&gt;rätt?" style="rhombus;whiteSpace=wrap;html=1;rounded=1;" vertex="1" parent="WIyWlLk6GJQsqaUBKTNV-1">
          <mxGeometry x="370" y="280" width="80" height="80" as="geometry" />
        </mxCell>
        <mxCell id="MLVvXIczcRtA_Kc2Rful-11" value="Utmatning&lt;br&gt;&quot;Talet är större&lt;br&gt;Försök igen&quot;" style="shape=parallelogram;perimeter=parallelogramPerimeter;whiteSpace=wrap;html=1;fixedSize=1;" vertex="1" parent="WIyWlLk6GJQsqaUBKTNV-1">
          <mxGeometry x="540" y="290" width="120" height="60" as="geometry" />
        </mxCell>
        <mxCell id="MLVvXIczcRtA_Kc2Rful-12" value="" style="endArrow=classic;html=1;" edge="1" parent="WIyWlLk6GJQsqaUBKTNV-1">
          <mxGeometry relative="1" as="geometry">
            <mxPoint x="370" y="319.5" as="sourcePoint" />
            <mxPoint x="270" y="320" as="targetPoint" />
          </mxGeometry>
        </mxCell>
        <mxCell id="MLVvXIczcRtA_Kc2Rful-13" value="Hög" style="edgeLabel;resizable=0;html=1;align=center;verticalAlign=middle;" connectable="0" vertex="1" parent="MLVvXIczcRtA_Kc2Rful-12">
          <mxGeometry relative="1" as="geometry" />
        </mxCell>
        <mxCell id="MLVvXIczcRtA_Kc2Rful-20" value="Utmatning&lt;br&gt;&quot;Talet är mindre&lt;br&gt;Försök igen&quot;" style="shape=parallelogram;perimeter=parallelogramPerimeter;whiteSpace=wrap;html=1;fixedSize=1;" vertex="1" parent="WIyWlLk6GJQsqaUBKTNV-1">
          <mxGeometry x="160" y="290" width="120" height="60" as="geometry" />
        </mxCell>
        <mxCell id="MLVvXIczcRtA_Kc2Rful-23" value="" style="endArrow=classic;html=1;" edge="1" parent="WIyWlLk6GJQsqaUBKTNV-1">
          <mxGeometry relative="1" as="geometry">
            <mxPoint x="450" y="319.5" as="sourcePoint" />
            <mxPoint x="550" y="319.5" as="targetPoint" />
          </mxGeometry>
        </mxCell>
        <mxCell id="MLVvXIczcRtA_Kc2Rful-24" value="Lågt" style="edgeLabel;resizable=0;html=1;align=center;verticalAlign=middle;" connectable="0" vertex="1" parent="MLVvXIczcRtA_Kc2Rful-23">
          <mxGeometry relative="1" as="geometry" />
        </mxCell>
        <mxCell id="MLVvXIczcRtA_Kc2Rful-25" value="" style="endArrow=classic;html=1;" edge="1" parent="WIyWlLk6GJQsqaUBKTNV-1">
          <mxGeometry relative="1" as="geometry">
            <mxPoint x="410" y="360" as="sourcePoint" />
            <mxPoint x="410" y="420" as="targetPoint" />
          </mxGeometry>
        </mxCell>
        <mxCell id="MLVvXIczcRtA_Kc2Rful-26" value="Rätt" style="edgeLabel;resizable=0;html=1;align=center;verticalAlign=middle;" connectable="0" vertex="1" parent="MLVvXIczcRtA_Kc2Rful-25">
          <mxGeometry relative="1" as="geometry" />
        </mxCell>
        <mxCell id="MLVvXIczcRtA_Kc2Rful-27" value="Utmatning&lt;br&gt;&quot;Grattis du&lt;br&gt;gissade rätt&quot;&lt;br&gt;&quot;Antal Gissningar&quot;" style="shape=parallelogram;perimeter=parallelogramPerimeter;whiteSpace=wrap;html=1;fixedSize=1;" vertex="1" parent="WIyWlLk6GJQsqaUBKTNV-1">
          <mxGeometry x="350" y="420" width="120" height="60" as="geometry" />
        </mxCell>
        <mxCell id="MLVvXIczcRtA_Kc2Rful-28" value="" style="endArrow=classic;html=1;exitX=0.5;exitY=1;exitDx=0;exitDy=0;entryX=0.979;entryY=0.386;entryDx=0;entryDy=0;entryPerimeter=0;" edge="1" parent="WIyWlLk6GJQsqaUBKTNV-1" source="MLVvXIczcRtA_Kc2Rful-11" target="MLVvXIczcRtA_Kc2Rful-27">
          <mxGeometry width="50" height="50" relative="1" as="geometry">
            <mxPoint x="550" y="400" as="sourcePoint" />
            <mxPoint x="468" y="444" as="targetPoint" />
            <Array as="points">
              <mxPoint x="600" y="440" />
            </Array>
          </mxGeometry>
        </mxCell>
        <mxCell id="MLVvXIczcRtA_Kc2Rful-29" value="" style="endArrow=classic;html=1;exitX=0.429;exitY=0.984;exitDx=0;exitDy=0;exitPerimeter=0;entryX=0.064;entryY=0.305;entryDx=0;entryDy=0;entryPerimeter=0;" edge="1" parent="WIyWlLk6GJQsqaUBKTNV-1" source="MLVvXIczcRtA_Kc2Rful-20" target="MLVvXIczcRtA_Kc2Rful-27">
          <mxGeometry width="50" height="50" relative="1" as="geometry">
            <mxPoint x="210" y="360" as="sourcePoint" />
            <mxPoint x="210" y="460" as="targetPoint" />
            <Array as="points">
              <mxPoint x="210" y="440" />
            </Array>
          </mxGeometry>
        </mxCell>
        <mxCell id="MLVvXIczcRtA_Kc2Rful-30" value="Stopp" style="rounded=1;whiteSpace=wrap;html=1;" vertex="1" parent="WIyWlLk6GJQsqaUBKTNV-1">
          <mxGeometry x="350" y="520" width="106" height="50" as="geometry" />
        </mxCell>
        <mxCell id="MLVvXIczcRtA_Kc2Rful-32" value="" style="endArrow=classic;html=1;entryX=0.5;entryY=0;entryDx=0;entryDy=0;" edge="1" parent="WIyWlLk6GJQsqaUBKTNV-1" target="MLVvXIczcRtA_Kc2Rful-30">
          <mxGeometry width="50" height="50" relative="1" as="geometry">
            <mxPoint x="403" y="480" as="sourcePoint" />
            <mxPoint x="456" y="430" as="targetPoint" />
          </mxGeometry>
        </mxCell>
      </root>
    </mxGraphModel>
  </diagram>
</mxfile>
